<?xml version="1.0" standalone="no"?><!DOCTYPE svg PUBLIC "-//W3C//DTD SVG 1.1//EN" "http://www.w3.org/Graphics/SVG/1.1/DTD/svg11.dtd"><svg class="icon" width="200px" height="200.00px" viewBox="0 0 1024 1024" version="1.1" xmlns="http://www.w3.org/2000/svg"><path d="M839.2704 769.2288c54.8864-44.2368 86.016-105.6768 86.016-170.3936 0-129.024-122.0608-233.8816-273.2032-235.52-20.0704-123.6992-144.5888-217.9072-293.6832-217.9072-163.84 0-296.96 113.4592-296.96 252.7232 0 69.632 33.5872 135.9872 93.3888 183.5008l-29.9008 90.5216c-2.4576 7.7824 0 16.7936 6.144 22.1184 3.6864 3.2768 8.6016 4.9152 13.1072 4.9152 3.2768 0 6.5536-0.8192 9.4208-2.4576l113.0496-58.5728c36.864 10.24 74.9568 13.5168 112.2304 11.4688 27.4432 105.2672 138.0352 184.7296 269.9264 184.7296 28.672 0 57.344-3.6864 85.1968-11.4688l104.0384 54.0672c2.8672 1.6384 6.144 2.4576 9.4208 2.4576 4.9152 0 9.4208-1.6384 13.1072-4.9152 6.5536-5.3248 8.6016-13.9264 6.144-22.1184l-27.4432-83.1488z m-466.944-159.744c-33.9968 1.6384-68.8128-2.4576-101.9904-12.6976a19.0464 19.0464 0 0 0-15.5648 1.6384l-75.3664 39.3216 18.8416-56.5248a20.39808 20.39808 0 0 0-7.3728-22.9376c-56.1152-40.5504-88.064-98.7136-88.064-159.744 0-116.736 114.688-211.7632 256-211.7632 126.976 0 233.472 77.0048 252.7232 178.9952-76.1856 9.0112-142.5408 43.8272-185.5488 94.6176-4.5056 4.9152-8.6016 10.24-12.288 15.5648-0.8192 0.8192-1.6384 2.048-2.048 2.8672-3.2768 4.9152-6.5536 9.4208-9.4208 14.336-1.2288 1.6384-2.048 3.6864-3.2768 5.7344-2.4576 4.5056-4.9152 8.6016-6.9632 13.5168-1.2288 2.4576-2.4576 5.3248-3.2768 7.7824l-4.9152 12.288c-1.2288 3.2768-2.048 6.9632-3.2768 10.24-1.2288 3.6864-2.048 7.3728-2.8672 11.0592l-2.4576 13.5168c-0.4096 2.8672-1.2288 5.7344-1.6384 8.6016-0.8192 7.3728-1.2288 15.1552-1.2288 22.9376-0.4096 3.2768-0.4096 6.9632 0 10.6496z m430.8992 135.5776c-7.3728 5.3248-10.24 14.7456-7.3728 22.9376l15.9744 48.7424-66.7648-34.4064a19.0464 19.0464 0 0 0-9.4208-2.4576c-2.048 0-4.096 0.4096-6.144 0.8192-26.624 8.192-53.6576 12.288-81.1008 12.288-117.5552 0-215.04-71.68-232.6528-164.6592 0-1.2288 0.4096-2.4576 0-4.096l-0.8192-4.096c-1.2288-6.9632-2.4576-14.336-2.4576-21.7088 0-12.6976 1.6384-24.9856 4.5056-36.864v-1.2288c2.8672-11.8784 6.9632-23.7568 12.6976-34.816 33.1776-67.584 111.4112-116.3264 205.2096-120.832 1.2288 0 2.048-0.4096 2.8672-0.8192 3.2768 0 6.9632-0.4096 10.24-0.4096 129.8432 0 235.52 87.2448 235.52 194.56 0.8192 56.5248-29.0816 109.7728-80.2816 147.0464z" fill="#212121" /><path d="M261.3248 282.2144c-20.0704 0-36.0448 16.384-36.0448 36.0448 0 20.0704 16.384 36.0448 36.0448 36.0448 20.0704 0 36.0448-16.384 36.0448-36.0448s-16.384-36.0448-36.0448-36.0448zM466.5344 354.7136c20.0704 0 36.0448-16.384 36.0448-36.0448 0-20.0704-16.384-36.0448-36.0448-36.0448-20.0704 0-36.0448 16.384-36.0448 36.0448 0 20.0704 15.9744 36.0448 36.0448 36.0448zM563.2 494.7968c-16.7936 0-30.72 13.9264-30.72 30.72s13.9264 30.72 30.72 30.72 30.72-13.9264 30.72-30.72-13.9264-30.72-30.72-30.72zM737.6896 494.7968c-16.7936 0-30.72 13.9264-30.72 30.72s13.9264 30.72 30.72 30.72 30.72-13.9264 30.72-30.72-13.9264-30.72-30.72-30.72z" fill="#212121" /></svg>